<?xml version="1.0" standalone="no"?>
<!DOCTYPE svg PUBLIC "-//W3C//DTD SVG 20010904//EN"
 "http://www.w3.org/TR/2001/REC-SVG-20010904/DTD/svg10.dtd">
<svg version="1.0" xmlns="http://www.w3.org/2000/svg"
 width="1024.000000pt" height="1024.000000pt" viewBox="0 0 1024.000000 1024.000000"
 preserveAspectRatio="xMidYMid meet">

<g transform="translate(0.000000,1024.000000) scale(0.100000,-0.100000)"
fill="#000000" stroke="none">
<path d="M2223 7883 c115 -2 299 -2 410 0 111 1 18 2 -208 2 -225 0 -316 -1
-202 -2z"/>
<path d="M4520 7880 c514 -3 906 -6 870 -8 -36 -2 -116 -3 -177 -3 -67 0 -113
-4 -113 -9 0 -6 -10 -10 -22 -10 -19 0 -20 2 -8 10 11 7 6 10 -22 10 -21 0
-41 -6 -45 -14 -9 -15 -61 -27 -69 -15 -7 12 -35 -1 -28 -15 3 -6 -1 -4 -8 5
-12 15 -15 15 -28 1 -13 -14 -12 -15 3 -9 9 3 17 2 17 -3 0 -13 -27 -13 -35 0
-10 16 -45 -7 -39 -25 4 -8 10 -12 15 -9 5 3 9 1 9 -4 0 -19 -13 -19 -31 -1
-10 10 -25 19 -31 19 -8 0 -5 -7 6 -15 20 -15 20 -15 0 -16 -18 0 -18 -1 1 -8
19 -8 19 -9 -5 -17 -14 -4 -29 -7 -33 -6 -5 1 -6 -2 -2 -8 4 -6 18 -5 40 4 24
11 37 12 41 4 4 -6 3 -8 -4 -4 -6 3 -17 -12 -27 -39 -10 -24 -21 -43 -25 -40
-3 2 -7 -2 -7 -10 0 -13 3 -13 17 0 16 14 18 14 24 0 4 -11 1 -15 -12 -13 -10
2 -16 -2 -14 -11 2 -11 0 -12 -10 -4 -10 8 -19 6 -36 -7 -22 -19 -14 -38 11
-24 9 5 9 4 -1 -7 -17 -18 -48 1 -44 27 3 15 1 16 -11 6 -12 -10 -18 -10 -28
1 -12 10 -17 9 -33 -7 -16 -16 -16 -18 -3 -13 9 3 17 2 17 -3 0 -6 -6 -10 -12
-11 -7 0 -2 -5 12 -11 15 -6 20 -12 13 -15 -7 -3 -13 -9 -13 -15 0 -6 8 -4 18
5 10 10 22 14 27 10 4 -5 6 -1 3 7 -3 8 -13 14 -22 14 -9 -1 -16 4 -16 12 0
21 16 17 47 -12 15 -14 22 -23 16 -19 -16 8 -17 -17 -2 -32 8 -8 8 -13 0 -17
-6 -4 -11 -4 -11 0 0 3 -7 0 -17 -7 -13 -11 -17 -11 -20 -1 -3 6 -9 10 -14 6
-5 -3 -9 -1 -9 5 0 6 -9 15 -20 21 -16 9 -18 8 -14 -5 3 -8 10 -12 15 -9 5 3
9 -2 9 -10 0 -9 4 -16 9 -16 5 0 12 -10 15 -22 l6 -23 19 23 c11 12 22 22 26
22 4 0 2 -6 -4 -13 -6 -8 -7 -17 -3 -21 4 -4 2 -7 -3 -6 -6 1 -13 1 -17 0 -5
-1 -11 -3 -15 -5 -24 -6 -43 -18 -43 -27 0 -5 5 -6 11 -2 7 4 10 1 7 -6 -10
-30 -24 -18 -24 21 -1 29 2 36 8 25 5 -9 14 -14 19 -10 6 3 3 12 -8 20 -25 18
-31 17 -38 -6 -4 -11 -11 -18 -16 -15 -11 8 11 43 31 49 8 2 3 3 -11 3 -17 -1
-26 -7 -25 -17 1 -8 -5 -14 -11 -13 -7 2 -13 -2 -13 -7 0 -6 5 -10 12 -10 9 0
9 -3 0 -12 -7 -7 -12 -17 -12 -22 0 -6 4 -5 9 2 7 11 9 11 14 -2 6 -15 -4 -21
-26 -17 -5 1 -6 -3 -2 -8 3 -6 13 -7 23 -4 16 6 16 6 0 -11 -10 -9 -18 -23
-18 -29 0 -7 -5 -4 -11 6 -8 13 -14 15 -30 7 -11 -6 -16 -16 -13 -22 5 -7 1
-9 -9 -5 -13 5 -17 1 -16 -16 0 -12 3 -16 6 -9 6 16 24 16 20 0 -1 -7 -7 -18
-14 -26 -7 -7 -10 -20 -7 -30 5 -13 4 -14 -4 -4 -7 11 -10 8 -14 -12 -3 -14 0
-28 6 -31 6 -2 0 -2 -13 1 -20 5 -23 3 -19 -14 4 -14 2 -19 -7 -16 -8 3 -12
-3 -11 -18 1 -14 7 -22 16 -20 13 3 13 1 1 -10 -10 -10 -15 -10 -18 -1 -3 8
-12 9 -28 3 -19 -7 -23 -6 -18 5 3 8 0 15 -5 15 -6 0 -9 -11 -6 -25 3 -17 -2
-27 -16 -35 -11 -6 -20 -7 -20 -2 0 6 -9 12 -21 15 -15 4 -18 2 -10 -7 6 -7 8
-16 4 -20 -4 -4 0 -4 9 -1 12 5 16 2 14 -12 -2 -10 0 -25 5 -34 4 -8 3 -22 -3
-30 -8 -11 -9 -11 -5 3 3 9 -1 19 -9 22 -9 3 -12 2 -9 -5 11 -16 -4 -61 -17
-53 -8 5 -9 1 -5 -11 7 -17 6 -17 -19 0 -26 17 -27 17 -21 -1 6 -17 6 -17 -9
1 -12 15 -18 16 -21 7 -4 -10 -9 -10 -22 2 -15 14 -18 14 -18 1 0 -8 4 -12 9
-9 11 7 29 -42 22 -63 -5 -15 -3 -15 11 2 9 12 11 21 5 23 -5 2 -10 11 -10 19
0 13 3 13 15 3 8 -7 13 -22 11 -34 -3 -11 -5 -24 -5 -28 -1 -5 -8 -8 -16 -8
-8 0 -15 -7 -15 -16 0 -8 4 -13 8 -10 5 3 9 -1 9 -8 0 -8 -10 -12 -26 -10 -13
1 -33 -2 -42 -7 -12 -6 -19 -5 -22 4 -2 6 -3 3 -1 -7 2 -11 -2 -26 -8 -33 -12
-15 -44 -17 -52 -4 -4 5 2 7 13 4 10 -3 22 0 25 6 5 7 -1 10 -16 8 -12 -1 -23
3 -23 10 0 23 -16 27 -22 5 -3 -13 -10 -19 -17 -15 -6 4 -5 -1 3 -10 11 -14
11 -17 -1 -17 -8 0 -20 6 -28 13 -12 10 -12 9 -2 -5 9 -11 10 -18 2 -23 -7 -4
-8 -11 -2 -18 6 -7 6 -21 1 -34 -10 -27 -23 -31 -17 -5 3 10 -1 27 -10 38 -12
16 -14 16 -9 2 5 -14 1 -17 -16 -15 -16 1 -23 -4 -25 -20 -2 -13 -8 -23 -14
-23 -6 0 -8 -12 -4 -30 3 -17 1 -30 -4 -30 -6 0 -10 5 -10 10 0 6 -8 10 -17
10 -17 -1 -17 -1 0 -11 15 -9 16 -13 5 -27 -10 -12 -10 -14 0 -8 7 4 12 2 12
-4 0 -6 12 -11 28 -10 15 1 185 1 377 -1 193 -2 -343 -6 -1190 -9 -1102 -4
-525 -6 2027 -8 l3566 -2 -4 458 c-3 427 -5 462 -24 524 -37 120 -129 232
-241 292 -96 53 -129 56 -586 56 l-423 0 0 -250 c0 -144 -5 -271 -11 -302 -35
-168 -167 -285 -334 -296 -123 -8 -219 31 -303 122 -84 91 -86 101 -90 434
l-3 292 -1542 -2 c-1438 -3 -1479 -3 -607 -8z m967 -6 c-3 -3 -12 -4 -19 -1
-8 3 -5 6 6 6 11 1 17 -2 13 -5z m46 -1 c-7 -2 -19 -2 -25 0 -7 3 -2 5 12 5
14 0 19 -2 13 -5z m110 0 c-7 -2 -21 -2 -30 0 -10 3 -4 5 12 5 17 0 24 -2 18
-5z m-608 -23 c3 -5 1 -10 -4 -10 -6 0 -11 5 -11 10 0 6 2 10 4 10 3 0 8 -4
11 -10z m-171 -142 c-3 -5 -10 -6 -15 -2 -6 3 -19 -2 -29 -11 -18 -16 -18 -16
-14 2 4 13 14 19 34 19 16 0 27 -3 24 -8z m1 -28 c-3 -5 -12 -10 -18 -10 -7 0
-6 4 3 10 19 12 23 12 15 0z m-64 -93 c-1 -12 -15 -9 -19 4 -3 6 1 10 8 8 6
-3 11 -8 11 -12z m-276 -286 c3 -5 2 -12 -3 -15 -5 -3 -9 1 -9 9 0 17 3 19 12
6z m-175 -245 c-7 -7 -14 -6 -21 1 -9 9 -7 12 9 10 14 -1 18 -5 12 -11z m-30
-80 c0 -3 -4 -8 -10 -11 -5 -3 -10 -1 -10 4 0 6 5 11 10 11 6 0 10 -2 10 -4z
m-53 -121 c0 -8 -4 -12 -9 -9 -5 3 -6 10 -3 15 9 13 12 11 12 -6z m-111 -60
c3 -8 -1 -24 -10 -36 -12 -18 -13 -26 -3 -38 11 -14 10 -14 -5 -2 -10 7 -15
18 -12 23 4 6 0 15 -7 20 -11 8 -10 9 4 4 22 -7 36 22 16 35 -10 6 -11 9 -1 9
7 0 15 -7 18 -15z m-107 -2 c-4 -22 3 -33 18 -33 9 0 14 -3 10 -6 -3 -3 -14
-3 -25 0 -17 6 -21 18 -13 44 2 6 11 1 10 -5z m-31 -45 c-5 -9 33 -48 48 -48
7 0 16 -5 20 -12 5 -7 3 -8 -6 -3 -9 5 -21 -2 -37 -21 -16 -20 -21 -23 -16 -9
6 17 5 18 -9 7 -12 -10 -17 -10 -20 -1 -3 9 -10 9 -28 -1 -23 -12 -23 -13 -5
-26 10 -8 14 -14 8 -14 -6 0 -17 7 -24 17 -12 14 -12 17 0 21 29 10 71 59 65
76 -3 9 -11 13 -17 9 -6 -3 -7 -1 -3 6 8 12 31 11 24 -1z m62 -22 c0 -3 -4 -8
-10 -11 -5 -3 -10 -1 -10 4 0 6 5 11 10 11 6 0 10 -2 10 -4z m-117 -27 c-3
-10 -14 -25 -24 -35 -18 -16 -19 -16 -19 13 0 35 3 39 28 39 13 0 18 -6 15
-17z m-13 -98 c0 -11 -3 -11 -17 0 -10 8 -14 9 -10 2 5 -8 0 -11 -13 -10 -19
1 -20 3 -5 14 10 6 14 17 10 23 -4 7 1 6 14 -2 12 -7 21 -19 21 -27z m70 18
c0 -5 -4 -9 -8 -9 -5 0 -9 7 -9 15 0 8 4 12 9 9 4 -3 8 -9 8 -15z m717 -46
c-20 -2 -52 -2 -70 0 -17 2 0 4 38 4 39 0 53 -2 32 -4z"/>
<path d="M4005 6690 c-4 -6 3 -10 14 -10 25 0 27 6 6 13 -8 4 -17 2 -20 -3z"/>
<path d="M3593 7810 c0 -36 2 -50 4 -32 2 17 2 47 0 65 -2 17 -4 3 -4 -33z"/>
<path d="M4896 7858 c3 -5 10 -6 15 -3 13 9 11 12 -6 12 -8 0 -12 -4 -9 -9z"/>
<path d="M4955 7860 c3 -5 12 -10 20 -10 8 0 17 5 20 10 4 6 -5 10 -20 10 -15
0 -24 -4 -20 -10z"/>
<path d="M4800 7840 c0 -6 7 -10 15 -10 8 0 15 2 15 4 0 2 -7 6 -15 10 -8 3
-15 1 -15 -4z"/>
<path d="M4737 7809 c7 -7 15 -10 18 -7 3 3 -2 9 -12 12 -14 6 -15 5 -6 -5z"/>
<path d="M4615 7779 c-4 -6 -5 -12 -2 -15 2 -3 7 2 10 11 7 17 1 20 -8 4z"/>
<path d="M1734 7758 l-19 -23 23 19 c21 18 27 26 19 26 -2 0 -12 -10 -23 -22z"/>
<path d="M4722 7768 c2 -6 10 -13 16 -14 7 -1 8 0 2 3 -5 2 -8 9 -4 14 3 5 0
9 -6 9 -7 0 -10 -5 -8 -12z"/>
<path d="M4684 7748 c-11 -33 -13 -51 -6 -43 7 6 8 10 11 36 0 6 8 8 17 5 14
-5 15 -4 4 9 -16 19 -17 19 -26 -7z"/>
<path d="M1684 7708 l-19 -23 23 19 c12 11 22 21 22 23 0 8 -8 2 -26 -19z"/>
<path d="M3593 7660 c0 -41 2 -58 4 -37 2 20 2 54 0 75 -2 20 -4 3 -4 -38z"/>
<path d="M4600 7713 c8 -3 19 -11 23 -17 6 -7 7 -6 4 4 -2 8 -12 16 -23 17
-13 2 -15 1 -4 -4z"/>
<path d="M4760 7710 c-11 -7 -11 -10 -2 -10 7 0 10 -4 7 -10 -3 -5 -2 -10 4
-10 5 0 9 9 8 20 -1 11 -1 20 -2 20 0 0 -7 -5 -15 -10z"/>
<path d="M4720 7683 c1 -13 30 -48 30 -36 0 7 -5 15 -10 18 -6 4 -8 11 -5 16
4 5 1 9 -4 9 -6 0 -11 -3 -11 -7z"/>
<path d="M4590 7625 c0 -8 2 -15 4 -15 2 0 6 7 10 15 3 8 1 15 -4 15 -6 0 -10
-7 -10 -15z"/>
<path d="M4710 7631 c0 -6 5 -13 10 -16 6 -3 10 1 10 9 0 9 -4 16 -10 16 -5 0
-10 -4 -10 -9z"/>
<path d="M2821 7604 c0 -11 3 -14 6 -6 3 7 2 16 -1 19 -3 4 -6 -2 -5 -13z"/>
<path d="M4485 7590 c3 -5 8 -10 11 -10 2 0 4 5 4 10 0 6 -5 10 -11 10 -5 0
-7 -4 -4 -10z"/>
<path d="M3594 7480 c0 -58 1 -81 3 -52 2 28 2 76 0 105 -2 28 -3 5 -3 -53z"/>
<path d="M4495 7570 c-16 -7 -17 -9 -3 -9 9 -1 20 4 23 9 7 11 7 11 -20 0z"/>
<path d="M4570 7563 c1 -21 15 -30 27 -18 10 10 9 14 -3 19 -20 8 -24 8 -24
-1z"/>
<path d="M2821 7544 c0 -11 3 -14 6 -6 3 7 2 16 -1 19 -3 4 -6 -2 -5 -13z"/>
<path d="M4486 7524 c-5 -13 -4 -14 7 -6 10 9 17 8 25 0 8 -8 12 -9 12 -1 0 6
-7 14 -16 17 -21 8 -21 8 -28 -10z"/>
<path d="M4670 7518 c0 -17 3 -19 9 -9 5 8 14 10 22 5 12 -6 12 -5 0 9 -19 23
-31 21 -31 -5z"/>
<path d="M2823 7470 c0 -30 2 -43 4 -27 2 15 2 39 0 55 -2 15 -4 2 -4 -28z"/>
<path d="M4479 7461 c-13 -15 -13 -19 -1 -30 11 -11 13 -10 10 2 -2 9 6 23 17
31 15 11 16 15 5 15 -8 0 -22 -8 -31 -18z"/>
<path d="M1571 7454 c0 -11 3 -14 6 -6 3 7 2 16 -1 19 -3 4 -6 -2 -5 -13z"/>
<path d="M4510 7425 c-9 -11 -22 -14 -44 -10 l-31 6 34 -21 c26 -17 31 -24 20
-30 -7 -5 -11 -11 -9 -14 3 -2 16 5 30 17 16 12 18 18 8 14 -12 -4 -18 -1 -18
8 0 8 6 12 14 9 17 -7 32 14 19 27 -6 6 -15 4 -23 -6z"/>
<path d="M4440 7385 c0 -7 30 -13 34 -7 3 4 -4 9 -15 9 -10 1 -19 0 -19 -2z"/>
<path d="M3581 7344 c0 -11 3 -14 6 -6 3 7 2 16 -1 19 -3 4 -6 -2 -5 -13z"/>
<path d="M4425 7330 c-3 -6 1 -7 9 -4 18 7 21 14 7 14 -6 0 -13 -4 -16 -10z"/>
<path d="M4356 7311 c-3 -4 4 -17 17 -27 22 -19 22 -19 4 2 -9 11 -14 24 -10
27 3 4 4 7 0 7 -3 0 -8 -4 -11 -9z"/>
<path d="M4402 7276 c-7 -15 -8 -26 -2 -26 6 0 10 7 10 16 0 12 4 14 13 6 7
-5 21 -6 32 -1 18 7 17 8 -7 8 -14 1 -28 6 -30 12 -2 6 -9 0 -16 -15z"/>
<path d="M4359 7269 c5 -6 7 -18 4 -25 -3 -8 1 -14 8 -14 11 0 11 -2 -1 -10
-8 -5 -12 -11 -10 -14 3 -2 16 4 30 14 22 16 22 18 5 17 -11 -1 -20 3 -20 10
0 7 -6 17 -12 23 -9 7 -10 7 -4 -1z"/>
<path d="M4430 7250 c-8 -5 -11 -10 -6 -10 5 0 1 -9 -8 -19 -11 -12 -14 -21
-7 -26 6 -3 11 -1 11 6 0 6 7 17 16 24 21 15 15 38 -6 25z"/>
<path d="M4280 7239 c0 -5 5 -7 10 -4 6 3 10 8 10 11 0 2 -4 4 -10 4 -5 0 -10
-5 -10 -11z"/>
<path d="M3525 7204 c-9 -15 -12 -23 -6 -20 11 7 35 46 28 46 -3 0 -12 -12
-22 -26z"/>
<path d="M4327 7185 c-4 -9 -3 -14 2 -10 5 3 11 0 13 -7 3 -8 9 -8 24 0 16 10
11 14 -12 11 -4 0 -10 5 -14 11 -5 8 -9 7 -13 -5z"/>
<path d="M4286 7167 c3 -10 9 -15 12 -12 3 3 0 11 -7 18 -10 9 -11 8 -5 -6z"/>
<path d="M2910 7167 c0 -2 15 -16 33 -33 l32 -29 -29 33 c-28 30 -36 37 -36
29z"/>
<path d="M3459 7129 c-26 -22 -73 -51 -105 -64 -33 -14 -52 -25 -44 -25 29 0
115 48 160 88 58 53 49 53 -11 1z"/>
<path d="M4250 7140 c0 -5 5 -10 11 -10 5 0 7 5 4 10 -3 6 -8 10 -11 10 -2 0
-4 -4 -4 -10z"/>
<path d="M2999 7091 c13 -12 28 -21 34 -21 12 0 11 0 -28 24 l-30 17 24 -20z"/>
<path d="M4213 7073 c4 -3 1 -13 -6 -22 -11 -14 -10 -14 5 -2 16 12 16 31 1
31 -4 0 -3 -3 0 -7z"/>
<path d="M4267 7074 c-7 -7 4 -44 14 -44 16 0 20 21 6 35 -8 8 -17 12 -20 9z"/>
<path d="M4230 7041 c0 -5 9 -11 20 -14 11 -3 20 -10 20 -17 0 -6 -4 -8 -10
-5 -5 3 -10 0 -10 -7 0 -9 -3 -9 -10 2 -5 8 -10 12 -10 8 0 -3 -3 -15 -7 -25
-3 -10 -3 -15 2 -11 4 4 15 2 23 -5 13 -10 14 -9 8 1 -5 9 -1 15 13 19 26 7
27 18 3 41 -21 19 -42 26 -42 13z"/>
<path d="M3178 7033 c23 -2 59 -2 80 0 20 2 1 4 -43 4 -44 0 -61 -2 -37 -4z"/>
<path d="M4156 7003 c-6 -14 -5 -15 5 -6 7 7 10 15 7 18 -3 3 -9 -2 -12 -12z"/>
<path d="M4155 6911 c-3 -6 -1 -11 4 -11 6 0 11 -5 11 -11 0 -5 -4 -8 -8 -5
-4 2 -9 -4 -9 -15 -2 -21 15 -26 22 -6 10 29 9 50 -2 54 -6 2 -14 -1 -18 -6z"/>
<path d="M4030 6890 c0 -5 5 -10 11 -10 5 0 7 5 4 10 -3 6 -8 10 -11 10 -2 0
-4 -4 -4 -10z"/>
<path d="M4120 6890 c-13 -8 -12 -10 3 -10 9 0 17 5 17 10 0 12 -1 12 -20 0z"/>
<path d="M4081 6871 c-19 -12 -24 -41 -6 -35 10 4 30 45 22 44 -1 0 -8 -4 -16
-9z"/>
<path d="M3959 6858 c-5 -19 -8 -50 -4 -46 7 7 15 48 9 48 -2 0 -4 -1 -5 -2z"/>
<path d="M4080 6820 c0 -5 5 -10 11 -10 5 0 7 5 4 10 -3 6 -8 10 -11 10 -2 0
-4 -4 -4 -10z"/>
<path d="M3878 6693 c7 -3 16 -2 19 1 4 3 -2 6 -13 5 -11 0 -14 -3 -6 -6z"/>
<path d="M3824 6608 c-4 -7 -3 -8 4 -4 7 4 12 3 12 -3 0 -5 -5 -12 -10 -14 -6
-3 -5 -4 2 -3 16 3 24 36 9 36 -5 0 -13 -5 -17 -12z"/>
<path d="M4312 6050 c-57 -35 -63 -65 -59 -291 3 -181 6 -202 24 -227 37 -50
49 -52 339 -52 266 0 272 0 305 23 51 34 58 68 58 272 1 157 -2 185 -19 223
-31 69 -47 72 -352 72 -246 0 -265 -1 -296 -20z"/>
<path d="M4292 5156 l-37 -34 0 -221 c1 -207 2 -222 21 -248 38 -51 49 -53
340 -53 266 0 272 0 305 23 51 34 58 68 58 272 0 204 -7 238 -58 272 -33 23
-39 23 -313 23 l-278 0 -38 -34z"/>
<path d="M4312 4290 c-56 -34 -62 -63 -58 -287 4 -216 7 -232 59 -263 30 -18
52 -20 295 -20 305 0 321 3 352 72 17 38 20 66 20 223 0 157 -3 185 -20 223
-31 69 -47 72 -352 72 -246 0 -265 -1 -296 -20z"/>
<path d="M4305 3408 c-48 -38 -53 -65 -50 -285 4 -215 9 -238 59 -265 14 -8
107 -13 291 -14 385 -2 368 -14 373 277 4 222 -3 254 -60 289 -31 19 -50 20
-309 20 -268 0 -277 -1 -304 -22z"/>
</g>
</svg>
